<?xml version="1.0" encoding="utf-8"?>
<!-- Generator: Adobe Illustrator 24.1.2, SVG Export Plug-In . SVG Version: 6.00 Build 0)  -->
<svg version="1.1" id="Слой_1" xmlns="http://www.w3.org/2000/svg" xmlns:xlink="http://www.w3.org/1999/xlink" x="0px" y="0px"
	 viewBox="0 0 246 110" style="enable-background:new 0 0 246 110;" xml:space="preserve">
<style type="text/css">
	.st0{clip-path:url(#SVGID_2_);}
	.st1{opacity:0.64;fill:#F6FBFF;enable-background:new    ;}
	.st2{opacity:0.68;fill:#E3F1FB;enable-background:new    ;}
	.st3{opacity:0.71;fill:#E3F1FB;enable-background:new    ;}
</style>
<g>
	<defs>
		<path id="SVGID_1_" d="M189.6,10.7c-14-4.6-30.3,1.1-39.7,12.5c-9.3-12.5-25.1-18.3-40.3-14.9c-15.1,3.9-26.4,16.3-29,31.7
			c-7.7-2.3-16.2-3-23.7-0.4c-7.6,2.7-14.2,9.3-15.2,17.2c-5.7-1.2-11.4-2.3-17.2-1.6c-5.7,0.8-11.4,4-13.6,9.3
			C7.5,72.5,13.4,82,21.5,85s17.1,0.7,24.8-3c14.6,18.6,41.6,21.8,60.2,7.1c0,0,0,0,0,0l0.8-0.6c17.9,20.1,48.7,22,68.8,4.1
			c1.8-1.6,3.5-3.4,5.1-5.2c9.5,7.4,31.4,16.3,41.6,5.7c4.3-4.7,5.5-11.4,3-17.3c8.7,0.1,15.8-6.8,15.9-15.5
			c0.1-4.4-1.7-8.6-4.9-11.6c-9.2-8.7-19-2.7-25.8,5.1C211,36.3,209.4,16.8,189.6,10.7z"/>
	</defs>
	<clipPath id="SVGID_2_">
		<use xlink:href="#SVGID_1_"  style="overflow:visible;"/>
	</clipPath>
	<g class="st0">
		
			<image style="overflow:visible;enable-background:new    ;" width="1280" height="720" xlink:href="18AAD677.jpeg"  transform="matrix(0.1922 0 0 0.1528 0 0)">
		</image>
	</g>
</g>
<path class="st1" d="M80.6,40c-7.7-2.3-16.2-3-23.7-0.3c-7.6,2.7-14.2,9.3-15.2,17.2c-5.7-1.2-11.4-2.3-17.2-1.6
	c-5.7,0.8-11.4,4-13.6,9.3C7.5,72.5,13.4,82,21.5,85s17.1,0.7,24.8-3c14.6,18.6,41.6,21.8,60.2,7.1c0,0,0,0,0,0l0.8-0.6
	c17.9,20.1,48.7,22,68.8,4.1c1.8-1.6,3.5-3.4,5.1-5.2c9.5,7.4,31.4,16.3,41.6,5.7c4.3-4.7,5.5-11.4,3-17.3
	c8.7,0.1,15.8-6.8,15.9-15.5c0.1-4.4-1.7-8.6-4.9-11.6c-9.2-8.7-19-2.7-25.8,5.1c0.1-13.4-0.9-28.1-10.5-36.9
	c0.9,9.7-0.9,19.7-6.1,27.8c-6.1,9.4-17.5,15.7-28.7,14.1c-4.4-0.6-8.8-2.6-11.6-6c-3.6-4.6-3.5-11.2-7.1-15.6
	c-2.9-3.5-7.9-5.1-11.8-7.2c4.4,2.4,6.3,8.1,5.1,13s-4.9,8.8-9.3,11.2c-6.6,3.6-14.5,4.1-21.4,1.2c-7-3-11.9-9.4-13.2-16.9
	c-1.2-8,2.4-16.2,7.9-22.1c3.3-3.5,7.1-6.5,11.2-8.9c-2,0.1-4,0.4-5.9,0.9C94.6,12.2,83.2,24.6,80.6,40z"/>
<path class="st2" d="M181.1,87.3c9.5,7.4,31.4,16.3,41.6,5.7c4.3-4.7,5.5-11.4,3-17.3c8.7,0.1,15.8-6.8,15.9-15.5
	c0.1-4.4-1.7-8.6-4.9-11.6c0.5,4.1-0.3,8.3-2.4,11.9c-2,3.8-5.9,6.8-10.1,7.1s-8.8-2.6-9.7-6.8c-1.3,2.5,0,5.5,1.6,7.8
	c1.6,2.2,3.8,4.3,4.6,7c1.1,4.1-1.4,8.5-5,10.7s-8,2.7-12.2,2.9C195.4,89.3,188.6,89.9,181.1,87.3z"/>
<path class="st3" d="M144.4,104.8c-14.2,0.2-27.7-5.8-37.2-16.3c-18.2,15.1-45.3,12.5-60.3-5.7c0,0,0,0,0,0
	c-0.2-0.3-0.4-0.5-0.6-0.8c-7.7,3.8-16.8,6-24.8,3s-14-12.4-10.5-20.3c0.3,6.8,7.4,12.3,14,14.2s13.6,0.7,20.3-0.9
	c-1.4-4.1-1.8-8.4-1-12.7c5.1,7.1,11.3,14.1,19.6,17c4.9,1.8,10.2,2,15.4,2c6.3,0,12.8,0,18.9-1.9s11.8-5.8,14.5-11.5
	c-4,8.6,8.4,19.9,14.3,24.1s12.7,7.3,19.4,10.3"/>
</svg>
