<?xml version="1.0" encoding="utf-8"?>
<!-- Generator: Adobe Illustrator 24.1.2, SVG Export Plug-In . SVG Version: 6.00 Build 0)  -->
<svg version="1.1" id="Слой_1" xmlns="http://www.w3.org/2000/svg" xmlns:xlink="http://www.w3.org/1999/xlink" x="0px" y="0px"
	 viewBox="0 0 103.2 68.3" style="enable-background:new 0 0 103.2 68.3;" xml:space="preserve">
<style type="text/css">
	.st0{clip-path:url(#SVGID_2_);}
	.st1{opacity:0.35;fill:#F5FBFF;enable-background:new    ;}
	.st2{opacity:0.43;fill:#F5FBFF;enable-background:new    ;}
	.st3{opacity:0.51;fill:#DFF2FD;enable-background:new    ;}
	.st4{opacity:0.56;fill:#DFF2FD;enable-background:new    ;}
</style>
<g>
	<defs>
		<path id="SVGID_1_" d="M53.1,1c-9.2,1.3-16.9,7.9-19.5,16.8c-8.2-4.6-18.5-3.5-25.5,2.8c-4.3,4.2-6.7,11.6-2.7,16.2
			c-5.2,3.8-6.2,12.2-2,17.1s12.7,5.3,17.2,0.7c4.4,7.3,12,12.1,20.5,12.8c5.1,0.2,10.2-0.8,14.8-3c1.3-0.6,9.2-6.6,7.2-8.6
			c4.2,4.3,9.6,7.8,15.6,8.6s12.6-1.2,16.2-6s3.7-12.4-0.7-16.6c4.6-2.1,7.6-6.7,7.6-11.8c-0.1-4.8-3.9-10.5-8.3-12.4
			c-2.1-0.9-14.4-0.4-14,3.7C79,15.9,76.2,10.8,72,7.1C66.8,2.5,59.9,0.3,53.1,1z"/>
	</defs>
	<clipPath id="SVGID_2_">
		<use xlink:href="#SVGID_1_"  style="overflow:visible;"/>
	</clipPath>
	<g class="st0">
		
			<image style="overflow:visible;enable-background:new    ;" width="1280" height="720" xlink:href="D2B92ABE.jpg"  transform="matrix(-0.13 1.000000e-02 -1.000000e-02 -0.12 137.6133 70.5289)">
		</image>
	</g>
</g>
<path class="st1" d="M79.7,21.5C79,15.9,76.3,10.8,72,7.1c-5.2-4.6-12.1-6.8-19-6c4.8,1.8,8.7,5.6,12.1,9.4
	c3.7,3.9,6.8,8.4,9.1,13.3c2.2,4.9,3.1,10.6,1.7,15.8C78.5,34.3,80.4,27.3,79.7,21.5z"/>
<path class="st2" d="M5.4,36.9c-5.2,3.8-6.2,12.2-2,17.1s12.7,5.3,17.2,0.7c4.4,7.3,12,12.1,20.5,12.8c5.1,0.2,10.2-0.8,14.8-3
	c1.3-0.6,9.2-6.6,7.2-8.6c4.2,4.3,9.6,7.8,15.6,8.6s12.6-1.2,16.2-6s3.7-12.4-0.7-16.6c4.6-2.1,7.6-6.7,7.6-11.8
	c-0.1-4.8-3.9-10.5-8.3-12.4c-0.2-0.1-0.3-0.1-0.5-0.1c1.7,2.3,2.3,5.2,1.5,8c-1.2,3.8-6.1,6.3-9.6,4.4c3.3,9-2.6,20.2-11.9,22.6
	c2.2-6.4,0.5-13.5-4.3-18.3c-2.3,8.6-9.3,15.1-18.1,16.6c-8.8,1.3-17.5-2.7-22.3-10.2c-5,1-10.9,1.8-14.7-1.6
	c-3.4-3-3.8-8.2-2.6-12.5c1.4-4.5,4.2-8.5,8.1-11.2c-4.2,0.6-8.1,2.5-11.2,5.3C3.8,24.9,1.4,32.3,5.4,36.9z"/>
<path class="st3" d="M78.9,64.5c6,0.8,12.6-1.2,16.2-6s3.7-12.4-0.7-16.6c4.6-2.1,7.6-6.7,7.6-11.8c-0.7,5.4-5.8,9.2-11.2,9.3
	c2.4,4.7,2.6,10.2,0.5,15.1C89.3,59.3,83.9,63,78.9,64.5z"/>
<path class="st4" d="M63.3,55.9c2,2-6,8-7.2,8.7c-4.6,2.2-9.7,3.2-14.9,3C32.7,66.8,25,62,20.7,54.6c-4.6,4.5-13,4.2-17.2-0.7
	s-3.2-13.3,2-17.1c-1.1,2.6-1.6,5.5-1.3,8.3c0.1,2.8,1.3,5.5,3.5,7.3c2.4,1.8,5.6,2.4,8.6,1.6c2.9-0.8,5.5-2.6,7.4-4.9
	c1.1,5.4,5.2,9.8,10.2,12.3s10.6,3,16.1,2.6c2.7-0.1,5.3-0.7,7.8-1.8C60.2,60.9,62.2,58.6,63.3,55.9z"/>
</svg>
