<svg xmlns="http://www.w3.org/2000/svg" viewBox="0 0 561.82 533.91"><defs><style>.a{fill:#e79aa5;}.b{fill:#e18597;}.c{fill:#e9b800;}</style></defs><path class="a" d="M267.91,241.42c-.26-8.47-7.45-15.56-16.86-16.42-27.22-2.51-54.24-6.89-81.48-9.2-32-2.7-64.87-2.44-95.16,6.85s-57.84,28.71-69.3,55.49S1.55,339,27.69,355.77c31.09,20,74.38,10.85,109-3.37a423.72,423.72,0,0,0,92.15-52c11.79-8.79,23.2-18.37,30.84-30.28A49.75,49.75,0,0,0,267.91,241.42Z"/><path class="a" d="M254.46,266.62c-60,41.45-103.93,101.14-122.89,166.94-7.6,26.38-10.37,57,8.36,78.61C157.12,532,189.4,538.36,216,530.86s47.6-26.78,60.49-48.95S295,434.78,298.78,410A533.88,533.88,0,0,0,304,302.88c-.56-10.77-1.76-22.29-9.38-30.67S268.17,257.15,254.46,266.62Z"/><path class="a" d="M295.66,264.42c-4.91,39.7-6.61,80.73,6.95,118.88s44.88,73.27,87.73,84.62c25.34,6.72,55.91,3.45,73-14.5,12.09-12.74,15.39-30.84,12.4-47.41s-11.63-31.91-21.24-46.35a384.25,384.25,0,0,0-81.53-88c-8.64-6.84-17.88-13.49-28.82-16.71S320.08,252.56,295.66,264.42Z"/><path class="a" d="M302.5,231.15c-6,10.45-.92,23.27,11,28.25a449.37,449.37,0,0,0,149,33.62c23,1.19,47.41.31,67-10.44,22.4-12.26,35.05-37,31.8-60.41s-21.76-44.5-46.06-53.69c-25.18-9.52-53.91-6.7-80.43-1.14a406.63,406.63,0,0,0-93.52,31.77C326.44,206.31,310.83,216.69,302.5,231.15Z"/><path class="a" d="M252.23,237.4c-63.93-25.25-130.17-52-175.43-99.75C57,116.81,41.64,87.08,55.64,63c9.87-17,32.15-25.85,53.58-26.83,42.64-1.93,82.6,22.62,107.15,54.05s36.52,69.11,48.09,106c2.52,8.06,5.07,16.39,3.92,24.67S260.64,240.72,252.23,237.4Z"/><path class="a" d="M264.63,243.45c13,6.35,29.17,3.3,41.46-4.3s21.44-19.15,30-30.68c24-32.4,45.69-67.42,55.44-106.36,4.81-19.21,6.4-40.39-2.76-58-9.25-17.81-27.91-29-46.8-36.45-19.81-7.81-43.7-12.1-61.48-.52-15.61,10.17-21.81,29.48-25.76,47.47C244.23,102.32,251.61,237.1,264.63,243.45Z"/><path class="b" d="M332.58,264.07C382,244.22,435.22,230.58,490,228.13a1.76,1.76,0,1,0,.08-3.52c-54.85-4.85-111.73-1.72-166.26,13.51C305.06,243.63,315.9,271,332.58,264.07Z"/><path class="b" d="M326.74,253.85c37.9-26.88,82.61-47.14,130.8-54.22a1.77,1.77,0,0,0-.25-3.52c-49-.2-99.8,10.21-144.89,34.42C296.88,239.21,314.11,263.14,326.74,253.85Z"/><path class="b" d="M336.45,269.54c45.76-1.74,91.61-5.77,137.38-8.14a1.78,1.78,0,0,0,.1-3.52c-45.57-4.9-91.14-11.45-136.73-15.71C321.59,240.71,320.75,270.14,336.45,269.54Z"/><path class="b" d="M308.43,278.59c17.25,44.91,51.9,80.39,91.63,101.35,1.74,1,3.42-1.77,1.89-3-35.36-26.92-58.06-66.51-67.4-106.58C331.79,257,302.8,262.67,308.43,278.59Z"/><path class="b" d="M304.15,264.24c28.1,20.59,57.71,39.46,86.23,59.57,1.25.89,3.36-1.52,2.31-2.65-23.72-25.58-46.37-52.42-70.51-77.53C313.91,235,294.51,257.18,304.15,264.24Z"/><path class="b" d="M295.73,280.17c17.46,53.23,46,101.79,79.93,144.44a1.76,1.76,0,1,0,2.89-2c-27.78-46.62-45.61-98-56.38-149.56C318.73,255.52,289.92,261.68,295.73,280.17Z"/><path class="b" d="M292.1,277.5c-1.68,20.87,3,41.37,11.75,59.1a117.54,117.54,0,0,0,36.89,43.91c1.33,1,3.38-1.46,2.32-2.65-12.52-13.25-20.41-29.9-24.24-46.68a107.24,107.24,0,0,1,.36-49.63C322.1,271.66,293.86,262.6,292.1,277.5Z"/><path class="b" d="M282.15,275.92c-22.1,57.25-29,118.93-24.55,178.18.17,2.62,3.37,2.54,3.52-.05C264,395,281.28,338,307.18,287,316.21,269.92,290.12,256.2,282.15,275.92Z"/><path class="b" d="M278.87,257.91c-22.92,36.78-39.17,77-51.82,117.4-.56,1.78,2.4,3,3.26,1.34,19.33-37.47,44.3-71.31,70.74-102.68C310.12,263.4,286.91,245.26,278.87,257.91Z"/><path class="b" d="M272.66,249.67C242.4,289.26,218,332.76,196.6,376.87a1.77,1.77,0,0,0,3,1.77c27.62-40.36,60.12-76.79,93.73-111.06C304.89,256,283.19,236.09,272.66,249.67Z"/><path class="b" d="M275.75,249c-53.79,22.9-109,44-166.18,59.35-2.51.68-1.89,3.82.7,3.45,58.7-8.21,117.66-19.33,174.89-37.09C304.8,268.49,294.09,241.07,275.75,249Z"/><path class="b" d="M285.39,232.44c-54.88,14.06-109.34,30.37-164.1,45.05a1.76,1.76,0,1,0,.7,3.45c56.18-7.55,112.72-13.48,168.78-21.65C310,256.49,304.21,227.62,285.39,232.44Z"/><path class="b" d="M287.37,222.05c-52.49.1-104.15,10.43-152.8,26.24a1.76,1.76,0,0,0,.84,3.41c50.24-8.68,101.2-8.06,150.45-2.31C302.54,251.52,305.52,222.22,287.37,222.05Z"/><path class="b" d="M278,216.74C231.4,188,183.51,161.11,136.6,132.89a1.76,1.76,0,1,0-2,2.89c42.75,34.19,84.6,69.76,127.72,103.43C277.07,250.74,293.92,226.6,278,216.74Z"/><path class="b" d="M301.89,222.83c-39.69-34.37-81-67.12-121.12-101a1.76,1.76,0,0,0-2.45,2.53c35.06,39.12,69,79.46,104.5,118.14C295,255.71,315.51,234.61,301.89,222.83Z"/><path class="b" d="M304,231.55c-29.29-41.5-62.81-79.78-96.93-116.75a1.76,1.76,0,0,0-2.75,2.19c28.39,41.45,52.83,85.3,76.41,129C288.72,260.94,314,245.88,304,231.55Z"/><path class="b" d="M306.49,230.7C290.51,180,283.62,124.83,291,70.11a1.76,1.76,0,1,0-3.45-.7c-14.6,53.54-18.81,111.6-7.6,168C284.15,256.91,312.17,247.76,306.49,230.7Z"/><path class="b" d="M331.21,232c-6.35-45.72-7.72-93.31.13-140.29a1.77,1.77,0,0,0-3.41-.85c-15,45.42-24.6,93.9-24,143.12C304.29,251,333.54,247.49,331.21,232Z"/><path class="b" d="M316,234.58c-9.85-37.79-16.08-77.76-14.21-118.25.07-1.78-3.1-2.24-3.49-.48-9.12,39.69-13.72,81.69-9.25,123.56C290.71,253.89,319.43,247.34,316,234.58Z"/><path class="b" d="M336.34,247.65c-1.68-40.23,3.38-82.33,19.12-121.6.67-1.72-2.17-3.2-3.14-1.59-22.39,36.2-38.85,78-43.34,122.26C307.67,262.14,337.13,261.2,336.34,247.65Z"/><path d="M242.94,259.08a84.59,84.59,0,0,1-40.78,3.42c-4.11-.68-9.06-2.6-9.13-6.34s4.86-5.76,8.94-6.66a229.81,229.81,0,0,1,37.85-5.1,59.46,59.46,0,0,1-34-15.24c-3.28-3.07-6.23-7.76-3.65-11.31,2.29-3.16,7.4-3.16,11.58-2.57A104.39,104.39,0,0,1,247,225.85a62.36,62.36,0,0,1-17.93-26.23c-1.12-3.25-1.77-7.24.88-9.65,3.56-3.23,9.76-1,13.65,2a41.81,41.81,0,0,1,16,25.47A67.6,67.6,0,0,1,265.24,189c1.19-2.72,2.74-5.57,5.65-6.89,12.55-5.71,17.25,9.38,10,35.05a79.94,79.94,0,0,1,28.6-19.83c3.89-1.6,8.57-2.89,12.31-1,5.51,2.8,4.85,10.16,2.21,15.29-4.87,9.47-14,17.09-24.93,20.75a232.53,232.53,0,0,1,33.77-11.12c4.41-1.09,9.55-1.94,13.25.51s4.29,7.17,2.62,10.85-5.19,6.42-8.85,8.66a68.67,68.67,0,0,1-36.35,9.75c6.84,1.56,14,.26,21.08.41s15,2.46,17.78,8.29c3.6,7.61-4.56,16.27-13.63,17.64s-18.09-2.17-26.47-5.63c6.69,6.33,15,18.26,16.1,22.68s-.89,9.79-5.65,11.23c-3.48,1.05-7.31-.22-10.52-1.85-10.17-5.17-17.77-14.23-20.47-24.4,2.72,9.43,1.54,22.44-2.52,29.27-2.59,4.36-9.17,7.18-13.87,4.53-3.17-1.78-4.46-5.3-5.19-8.58a51.28,51.28,0,0,1,1.05-26.25c-5.84,8.67-11.93,17.59-21.16,23.42-4.32,2.74-10.07,4.72-14.85,2.64-5.54-2.41-6.93-9.36-4.5-14.4,4.69-9.68,13.19-15,26.2-22.51a205.83,205.83,0,0,1-29,15c-2.66,1.12-5.47,2.21-8.41,2.11s-6.05-1.75-6.64-4.34c-.78-3.43,2.88-6.24,6.2-8.06C217.66,267.52,226.93,263.78,242.94,259.08Z"/><path class="c" d="M246.8,245.78A9.13,9.13,0,0,0,245,255.89a11.19,11.19,0,0,0,9.32,6c.52,5.18,4.6,10,10,11.76a17,17,0,0,0,16.09-3.1c5.68,2,12.67.16,16.3-4.18a11.92,11.92,0,0,0-.12-15.21,12.12,12.12,0,0,0,3-14.09c-2.24-4.67-7.82-7.9-13.48-7.82-2.38-4.83-7.91-8.31-13.78-8.66s-11.83,2.43-14.85,6.94a11,11,0,0,0-9.43,5C246.27,235.52,246.54,239.46,246.8,245.78Z"/></svg>