<svg xmlns="http://www.w3.org/2000/svg" viewBox="0 0 536.89 559.62"><defs><style>.a{fill:#86cdf0;}.b{fill:#71bfd8;}.c{fill:#e9b800;}</style></defs><path class="a" d="M294.47,266.12c8.46-.49,15.35-7.87,15.95-17.31,1.75-27.27,5.39-54.4,6.94-81.7,1.82-32,.65-64.91-9.47-94.94s-30.29-57-57.38-67.73-60.9-1.88-77,24.71C154.41,60.78,164.74,103.8,179.9,138a423.39,423.39,0,0,0,54.52,90.68c9.11,11.53,19,22.68,31.12,30A49.65,49.65,0,0,0,294.47,266.12Z"/><path class="a" d="M268.9,253.37c-43.08-58.82-104-101.1-170.26-118.23-26.58-6.87-57.27-8.79-78.36,10.52C.92,163.4-4.52,195.84,3.71,222.25S31.8,269.1,54.3,281.37s47.63,17.21,72.53,20.26A533.54,533.54,0,0,0,234,303.92c10.75-.85,22.23-2.37,30.4-10.22S278.75,266.82,268.9,253.37Z"/><path class="a" d="M272.24,294.5c-39.82-3.82-80.87-4.38-118.64,10.23s-72,46.88-82.17,90c-6,25.52-1.9,56,16.52,72.52C101,479,119.2,481.82,135.68,478.37s31.58-12.51,45.75-22.52a384.09,384.09,0,0,0,85.73-83.92c6.6-8.83,13-18.25,15.91-29.28S284.77,318.58,272.24,294.5Z"/><path class="a" d="M305.69,300.41c-10.61-5.72-23.29-.28-27.94,11.81a449.4,449.4,0,0,0-29.49,149.83c-.55,23.06,1,47.4,12.29,66.72,12.87,22.05,37.95,34,61.27,30.12s43.87-23,52.39-47.53c8.83-25.43,5.21-54.07-1.08-80.43a406.44,406.44,0,0,0-34.34-92.6C331.18,323.66,320.37,308.34,305.69,300.41Z"/><path class="a" d="M298.05,250.34c23.48-64.6,48.41-131.56,94.88-178.12C413.21,51.89,442.5,35.68,467,49c17.29,9.4,26.73,31.42,28.3,52.82,3.1,42.57-20.33,83.19-51.07,108.6s-68.08,38.42-104.63,51c-8,2.75-16.24,5.53-24.56,4.6S295,258.83,298.05,250.34Z"/><path class="a" d="M292.35,262.9c-6,13.19-2.5,29.25,5.44,41.32s19.73,20.9,31.5,29.13c33,23.11,68.66,43.82,107.85,52.49,19.33,4.27,40.55,5.28,57.92-4.36,17.55-9.74,28.23-28.71,35.15-47.79,7.26-20,10.88-44-1.19-61.47-10.59-15.33-30.06-21-48.16-24.45C432.86,238.61,298.34,249.71,292.35,262.9Z"/><path class="b" d="M273.62,331.4c21.21,48.82,36.3,101.67,40.27,156.38a1.76,1.76,0,1,0,3.52,0c3.34-55-1.37-111.74-18.1-165.82C293.29,303.32,266.21,314.91,273.62,331.4Z"/><path class="b" d="M283.67,325.27c27.91,37.14,49.4,81.28,57.81,129.25a1.77,1.77,0,0,0,3.51-.34c-1.15-49-13-99.49-38.4-143.89C297.47,295,274,312.9,283.67,325.27Z"/><path class="b" d="M268.25,335.41c3,45.69,8.3,91.41,11.94,137.11.15,2,3.35,2,3.52,0,3.63-45.69,8.92-91.42,11.93-137.11C296.66,319.76,267.22,319.73,268.25,335.41Z"/><path class="b" d="M258.44,307.65c-44.43,18.49-78.94,54.1-98.79,94.4-.91,1.76,1.86,3.37,3,1.8,25.94-36.09,64.88-59.87,104.68-70.31C280.68,330.41,274.19,301.59,258.44,307.65Z"/><path class="b" d="M272.66,303c-19.8,28.65-37.86,58.78-57.17,87.84-.85,1.27,1.62,3.31,2.71,2.24,24.92-24.42,51.13-47.81,75.56-72.63C302.12,311.93,279.45,293.15,272.66,303Z"/><path class="b" d="M256.5,295C203.78,313.92,156,343.81,114.33,378.89a1.76,1.76,0,1,0,2.08,2.84c45.84-29.07,96.7-48.31,148-60.5C281.78,317.31,274.83,288.68,256.5,295Z"/><path class="b" d="M259.07,291.3c-20.91-1.1-41.27,4.17-58.75,13.37a117.56,117.56,0,0,0-42.87,38.1c-1,1.35,1.55,3.33,2.71,2.24,12.89-12.88,29.32-21.23,46-25.52a107.27,107.27,0,0,1,49.62-1C265.73,321.13,274,292.64,259.07,291.3Z"/><path class="b" d="M260.37,281.3c-57.83-20.5-119.68-25.71-178.78-19.61-2.61.24-2.45,3.44.14,3.52,59.14,1.22,116.62,17,168.25,41.42C267.31,315.19,280.31,288.73,260.37,281.3Z"/><path class="b" d="M278.29,277.53c-37.4-21.89-78.09-37-118.79-48.55-1.79-.52-2.91,2.48-1.24,3.29,38,18.29,72.5,42.32,104.59,67.88C273.67,308.92,291.15,285.22,278.29,277.53Z"/><path class="b" d="M286.35,271.1c-40.4-29.16-84.57-52.37-129.25-72.52a1.77,1.77,0,0,0-1.68,3.09c41.1,26.49,78.41,58,113.6,90.63C280.92,303.49,300.22,281.25,286.35,271.1Z"/><path class="b" d="M287.12,274.17c-24.38-53.14-47-107.76-63.92-164.48-.75-2.49-3.87-1.78-3.43.79,9.83,58.45,22.58,117.09,41.91,173.81C268.43,303.75,295.55,292.28,287.12,274.17Z"/><path class="b" d="M303.92,283.35c-15.56-54.47-33.37-108.46-49.55-162.79a1.77,1.77,0,1,0-3.44.78c9.1,56,16.59,112.32,26.31,168.13C280.56,308.57,309.26,302,303.92,283.35Z"/><path class="b" d="M314.37,285c-1.55-52.47-13.3-103.82-30.45-152a1.76,1.76,0,0,0-3.39.94c10.07,50,10.86,100.94,6.47,150.32C285.33,301,314.7,303.19,314.37,285Z"/><path class="b" d="M319.42,275.48c27.45-47.33,53-95.94,79.92-143.62a1.76,1.76,0,1,0-2.95-1.93c-33,43.69-67.4,86.5-99.87,130.53C285.41,275.54,310,291.71,319.42,275.48Z"/><path class="b" d="M314,299.58c33.25-40.63,64.85-82.82,97.64-123.87a1.76,1.76,0,0,0-2.6-2.38c-38.14,36.13-77.53,71.16-115.2,107.72C280.93,293.57,302.59,313.51,314,299.58Z"/><path class="b" d="M305.33,301.92c40.68-30.43,78-65,114-100.11a1.76,1.76,0,0,0-2.27-2.69c-40.65,29.52-83.8,55.17-126.84,79.95C275.54,287.46,291.28,312.33,305.33,301.92Z"/><path class="b" d="M306.25,304.39c50.2-17.37,105.2-25.78,160.1-19.93A1.76,1.76,0,1,0,467,281C413,267.88,354.88,265.28,298.79,278,279.44,282.78,289.36,310.54,306.25,304.39Z"/><path class="b" d="M305.63,329.13c45.53-7.6,93.06-10.29,140.25-3.73a1.77,1.77,0,0,0,.75-3.44c-45.82-13.73-94.55-22-143.73-20.07C285.9,302.75,290.21,331.89,305.63,329.13Z"/><path class="b" d="M302.63,314c37.51-10.89,77.29-18.22,117.82-17.46,1.78,0,2.15-3.16.38-3.5-39.92-8-82-11.46-123.77-5.85C282.63,289.26,290,317.79,302.63,314Z"/><path class="b" d="M290.14,334.7c40.16-2.79,82.39,1.11,122.07,15.75,1.75.63,3.14-2.25,1.5-3.18-36.8-21.38-79-36.68-123.41-39.95C274.86,306.44,276.61,335.86,290.14,334.7Z"/><path d="M276.13,241.65A84.44,84.44,0,0,1,271.59,201c.55-4.13,2.34-9.13,6.08-9.3s5.89,4.7,6.9,8.75a230.89,230.89,0,0,1,6.15,37.69A59.47,59.47,0,0,1,305,203.75c3-3.36,7.59-6.43,11.2-4,3.23,2.21,3.37,7.32,2.89,11.5a104.55,104.55,0,0,1-9.64,33.5,62.3,62.3,0,0,1,25.72-18.64c3.22-1.22,7.19-2,9.67.61,3.33,3.46,1.23,9.73-1.61,13.69a41.81,41.81,0,0,1-25,16.73A67.45,67.45,0,0,1,346.78,262c2.75,1.1,5.64,2.58,7,5.45,6.05,12.39-8.91,17.51-34.76,10.93a80.09,80.09,0,0,1,20.61,28.05c1.71,3.84,3.13,8.49,1.33,12.28-2.65,5.58-10,5.12-15.22,2.63-9.6-4.61-17.47-13.55-21.44-24.35a231.18,231.18,0,0,1,12.05,33.45c1.21,4.38,2.21,9.5-.13,13.26s-7.06,4.49-10.78,2.92-6.56-5-8.9-8.61A68.53,68.53,0,0,1,285.83,302c-1.38,6.89.12,14,.17,21.09s-2.05,15.07-7.8,18c-7.5,3.81-16.38-4.11-18-13.13s1.67-18.15,4.9-26.62c-6.14,6.86-17.84,15.45-22.22,16.72s-9.81-.62-11.39-5.34c-1.15-3.45,0-7.32,1.56-10.57,4.88-10.3,13.74-18.16,23.83-21.14-9.35,3-22.39,2.16-29.33-1.7-4.43-2.48-7.43-9-4.92-13.74,1.69-3.22,5.18-4.61,8.44-5.43a51.38,51.38,0,0,1,26.26.32c-8.82-5.59-17.91-11.43-24-20.5-2.85-4.25-5-9.94-3-14.78,2.25-5.6,9.16-7.18,14.26-4.88,9.81,4.42,15.38,12.76,23.23,25.56A206.69,206.69,0,0,1,252,217.27c-1.19-2.63-2.36-5.41-2.34-8.36s1.59-6.09,4.16-6.75c3.4-.87,6.32,2.7,8.22,6C267,216.61,271,225.78,276.13,241.65Z"/><path class="c" d="M289.53,245.14a9.13,9.13,0,0,0-10.16-1.51,11.2,11.2,0,0,0-5.74,9.48c-5.16.66-9.82,4.87-11.48,10.37a17,17,0,0,0,3.55,16c-1.8,5.73.18,12.67,4.63,16.18a11.92,11.92,0,0,0,15.2-.54,12.1,12.1,0,0,0,14.16,2.57c4.61-2.37,7.69-8,7.44-13.69,4.77-2.51,8.1-8.14,8.29-14s-2.76-11.76-7.35-14.65a11,11,0,0,0-5.22-9.29C299.77,244.33,295.84,244.7,289.53,245.14Z"/></svg>