<?xml version="1.0" encoding="utf-8"?>
<!-- Generator: Adobe Illustrator 24.1.2, SVG Export Plug-In . SVG Version: 6.00 Build 0)  -->
<svg version="1.1" id="Слой_1" xmlns="http://www.w3.org/2000/svg" xmlns:xlink="http://www.w3.org/1999/xlink" x="0px" y="0px"
	 viewBox="0 0 50 50" style="enable-background:new 0 0 50 50;" xml:space="preserve">
<style type="text/css">
	.st0{fill:#7F74B1;}
</style>
<path class="st0" d="M0,23.7L0,23.7c0,1.5,0.4,2.6,0.8,2.6h48.4c0.4,0,0.8-1.2,0.8-2.6v0c0-1.5-0.4-2.6-0.8-2.6H0.8
	C0.4,21.1,0,22.3,0,23.7z M0,38.6L0,38.6c0,1.5,0.4,2.6,0.8,2.6h48.4c0.4,0,0.8-1.2,0.8-2.6v0c0-1.5-0.4-2.6-0.8-2.6H0.8
	C0.4,35.9,0,37.1,0,38.6z M0,8.8L0,8.8c0,1.5,0.4,2.6,0.8,2.6h48.4c0.4,0,0.8-1.2,0.8-2.6v0c0-1.5-0.4-2.6-0.8-2.6H0.8
	C0.4,6.1,0,7.3,0,8.8z"/>
</svg>
