<?xml version="1.0" encoding="utf-8"?>
<!-- Generator: Adobe Illustrator 24.1.2, SVG Export Plug-In . SVG Version: 6.00 Build 0)  -->
<svg version="1.1" id="Слой_1" xmlns="http://www.w3.org/2000/svg" xmlns:xlink="http://www.w3.org/1999/xlink" x="0px" y="0px"
	 viewBox="0 0 920.2 459.7" style="enable-background:new 0 0 920.2 459.7;" xml:space="preserve">
<style type="text/css">
	.st0{clip-path:url(#SVGID_2_);}
	.st1{opacity:0.5;}
	.st2{fill:#F5FBFF;}
	.st3{fill:#DFF2FD;}
</style>
<g>
	<defs>
		<path id="SVGID_1_" d="M52.4,170.2c18.7-7.1,41.5-4.5,57.6,6.4c-3.1-36.8,23.3-74.1,62-87.7s86.8-2.3,112.9,26.5
			C303.7,59,365.3,14.1,431.7,14.4c66.5,0.3,129.9,50,132.4,108.9c18.1-21.1,52.4-23.8,82.3-22.8s61.5,4.4,84.3,21.5
			c32.3,24.2,35.4,66.8,33.6,104.3c36.8-15.2,84.1-14.2,114.4,9.7s34.1,72.4,2.3,94.6c-26.7,18.6-65,13.9-98,6.7
			c-28,41.4-73.5,74.2-126.4,85.4s-112.7-1-151.2-35c-29.1,36.4-81.7,56.8-131.5,51s-94.9-37.4-112.5-79.1
			c-31.9,19.4-76.8,20.4-109.7,2.3s-51.9-54.2-46.4-88.1c-21.8,13.8-54.2,12.3-74.3-3.3C-4.3,243.3,10.9,186,52.4,170.2z"/>
	</defs>
	<clipPath id="SVGID_2_">
		<use xlink:href="#SVGID_1_"  style="overflow:visible;"/>
	</clipPath>
	<g class="st0">
		
			<image style="overflow:visible;enable-background:new    ;" width="1283" height="722" xlink:href="58F00E3F.jpeg"  transform="matrix(1.0275 0 0 1.057 -31.4516 -246.7742)">
		</image>
	</g>
</g>
<g class="st1">
	<path class="st2" d="M172,89c-38.8,13.6-65.1,50.9-62,87.7c-16.1-10.9-39-13.5-57.6-6.4c-41.5,15.7-56.7,73-21.6,100.3
		c20.1,15.6,52.5,17.1,74.3,3.3c-5.5,34,13.5,70,46.4,88.1s77.8,17.1,109.7-2.3c17.6,41.8,62.6,73.4,112.5,79.1s102.5-14.7,131.5-51
		c38.6,34,98.3,46.2,151.2,35s98.5-44.1,126.4-85.4c33,7.2,71.3,11.9,98-6.7c31.9-22.2,28-70.7-2.3-94.6s-77.6-24.9-114.4-9.7
		c1.4-30.4-0.4-64.2-18.3-88.8c1.5,34.4-5.7,68.6-21.1,99.3c-7,14.1-16.2,28-30.7,36.5c-12.3,7.1-27.1,9.7-41.7,11.5
		c-28.5,3.6-57.3,5.1-86,4.3c-16.5-0.4-35.5-2.9-43.8-15.5c31-39,35.2-93.4,10.4-135.7c-20.6,47.7-69,87.8-126.3,93
		s-118.7-31.6-125.1-82.4c-8.4,28.8-1.3,60.9,18.8,84.7c-28.6,6.1-58.3,4.3-86-5.2c-25.3-8.8-48.7-25.6-56.3-48.8
		c-7.8-23.9,3-50.4,22.1-68.6c12.6-12,27.5-19.2,43.1-26.2C206.1,82,188.3,83.3,172,89z"/>
	<path class="st3" d="M878.7,236c30.3,23.9,34.1,72.4,2.3,94.6c-26.7,18.6-65,13.9-98,6.7c-28,41.4-73.5,74.2-126.4,85.4
		s-112.7-1-151.2-35c-29.1,36.4-81.7,56.8-131.5,51s-94.9-37.4-112.5-79.1c-31.9,19.5-76.8,20.4-109.7,2.3s-51.9-54.2-46.4-88.1
		c-21.8,13.8-54.2,12.3-74.3-3.3c27.9,0.7,58.8-7.7,83.5-19.3c-1.9-13.4,1.8-27.1,10.2-37.7c-4.4,36.4,8.2,75,37.2,101.1
		s74.7,38,113.8,26.3c-3.7-16.8-3.9-34.1-0.6-51c16.7,51.9,65.4,96.1,125,107.3s127.1-13.9,155.3-61.9c0.3,19.1-5.3,37.8-16.2,53.4
		c31.5,14.1,69.8,14,102.9,3.1s61.3-31.8,83-56.5c19.3-22,34.2-48.4,33.5-76.2c16.3,11.5,26.6,29.4,27.7,47.8
		c0.2,3.9,0.2,8.2,3.1,11.3c1.7,1.8,4.3,2.9,6.8,3.7c24.4,7.7,52.9-3.3,67.9-22S882.6,258.7,878.7,236z"/>
</g>
</svg>
