<?xml version="1.0" encoding="utf-8"?>
<!-- Generator: Adobe Illustrator 24.1.2, SVG Export Plug-In . SVG Version: 6.00 Build 0)  -->
<svg version="1.1" id="Слой_1" xmlns="http://www.w3.org/2000/svg" xmlns:xlink="http://www.w3.org/1999/xlink" x="0px" y="0px"
	 viewBox="0 0 644 352.7" style="enable-background:new 0 0 644 352.7;" xml:space="preserve">
<style type="text/css">
	.st0{clip-path:url(#SVGID_2_);}
	.st1{clip-path:url(#SVGID_4_);}
	.st2{opacity:0.38;}
	.st3{fill:#F5FBFF;}
	.st4{fill:#DFF2FD;}
</style>
<g>
	<defs>
		<path id="SVGID_1_" d="M195.3,241.6c-56.2-31-61.1-120.3-2-150.3c7.3-3.7,18.1-9.4,26.2-10.6c4.1-0.6,30.9,2.9,30.6,8.9
			c1-20.5,16.2-37.9,33.9-48.3C328.3,15.1,391.7,28.9,421.3,71s21.1,106.5-18.5,139.4c15.8-7,35.9-2.4,47,10.9
			c11.1,13.3,12,33.9,2.3,48.2c20.8-12,50.6-4.7,63.4,15.7c31.8-6.8,64.9-4.1,95.2,7.9c6.7,2.7,13.5,6,17.8,11.8s5.3,14.6,0.4,19.9
			c-3.1,3.4-7.9,4.7-12.4,5.6c-17.3,3.5-35.1,3.5-52.8,3.6l-247.8,1.2c-8.3,0-16.9,0-24.5-3.4s-13.8-11.2-12.7-19.5
			c-12.1,9.6-26.3,17-41.6,18.6s-31.8-3-42.1-14.4c-48.3,13-98.8,16-148.3,8.8c-8.1-1.2-16.5-2.8-23.3-7.3s-11.9-12.7-10.4-20.8
			s9.2-13.9,17.3-15.6c8-1.8,16.4-0.3,24.4,1.4c-3.2-15.7,6.3-32,19.8-40.8s30-11.3,46-11.8C145.7,229.6,171.1,233.4,195.3,241.6z"
			/>
	</defs>
	<clipPath id="SVGID_2_">
		<use xlink:href="#SVGID_1_"  style="overflow:visible;"/>
	</clipPath>
	<g class="st0">
		<g>
			<defs>
				<rect id="SVGID_3_" x="-183" y="-108" width="1049.7" height="590.7"/>
			</defs>
			<clipPath id="SVGID_4_">
				<use xlink:href="#SVGID_3_"  style="overflow:visible;"/>
			</clipPath>
			<g class="st1">
				
					<image style="overflow:visible;enable-background:new    ;" width="1283" height="722" xlink:href="E69BA331.jpeg"  transform="matrix(0.4918 0 0 0.464 7 9)">
				</image>
			</g>
		</g>
	</g>
</g>
<g class="st2">
	<path class="st3" d="M30.1,281.6c-8,1.8-15.8,7.5-17.3,15.6s3.5,16.3,10.4,20.8s15.2,6.1,23.3,7.3c49.5,7.2,100,4.2,148.3-8.8
		c10.4,11.4,26.8,16,42.1,14.4s29.6-9.1,41.6-18.6c-1.2,8.2,5.1,16.1,12.7,19.5s16.2,3.4,24.5,3.4l247.8-1.2
		c17.7-0.1,35.5-0.2,52.8-3.6c4.5-0.9,9.3-2.2,12.4-5.6c4.9-5.3,3.9-14.1-0.4-19.9c-1.6-2.1-3.5-4-5.7-5.5
		c-25.1,7.3-52.8,4.7-78.9,0c-8.9-1.6-18.5-3.7-24.6-10.4c-1.1-1.2-2-2.5-2.6-4c-0.4,0.1-0.8,0.1-1.2,0.2
		c-12.8-20.4-42.5-27.8-63.4-15.7c9.8-14.2,8.8-34.9-2.3-48.2s-31.2-17.9-47-10.9c29.6-24.6,41.8-66.8,33.8-104.1
		c-3.8,25.7-12.7,50.7-28.7,71.1c-18.9,24-48.3,40.7-78.9,39.9c-4.1-31.4-24.5-60.3-52.7-74.7c15.3,11.7,15.7,37.1,2.6,51.2
		c-13.1,14.1-36,16.6-53.3,8.2s-29.1-25.9-33.6-44.6c-6.8-27.8,2.8-51.2,17.3-73.7c-5.7,2.3-11.6,5.3-16.1,7.6
		c-59.1,30-54.2,119.3,2,150.3c-6-2-12.1-3.8-18.3-5.3c-20.3,5.4-42.9,8.7-63,14.2c-21.3,5.8-42.6,18.9-49,40
		c-3.3-2.7-6.8-5.2-10.4-7.5l0,0C46.5,281.4,38.1,279.9,30.1,281.6z"/>
	<path class="st4" d="M195.3,241.6c-56.2-31-61.1-120.3-2-150.3c4.5-2.3,10.3-5.3,16.1-7.6c-29.6,14.4-44.9,48.5-45.4,81.4
		c-0.3,17,2.7,35.1,13.8,48c10,11.6,25.6,17.4,40.9,18.4s30.6-2.6,45.3-7C246.5,240.8,216.2,253.1,195.3,241.6z"/>
	<path class="st4" d="M452.1,269.5c9.8-14.2,8.8-34.9-2.3-48.2s-31.2-17.9-47-10.9c11.6-2.1,22.7,8.8,25,20.4
		c2.3,11.6-2.5,23.6-9.5,33.1c-2.9,4-6.3,7.7-10.6,10.2c-6.5,3.7-14.4,3.8-21.8,3.5c-17.1-0.8-36.4-5.6-44.3-20.8
		c-1.5,11.7,6.5,23.1,16.9,28.8s22.5,6.9,34.3,7.1c11.2,0.2,22.5-0.3,33.1-3.5S445.8,278.7,452.1,269.5z"/>
	<path class="st4" d="M628.5,304.8c4.3,5.8,5.3,14.6,0.4,19.9c-3.1,3.4-7.9,4.7-12.4,5.6c-17.3,3.5-35.1,3.5-52.8,3.6l-247.8,1.2
		c-8.3,0-16.9,0-24.5-3.4s-13.8-11.3-12.7-19.5c13.1,9.2,28.7,11,44.7,11.6c19.4,0.7,39,0.7,57.8-3.8s37-13.9,49-29.2
		c1.3,13-4.7,25.6-15.5,32.7c55.9-6.9,112.5-0.4,168.8-1.5C599.8,321.8,622.4,320.1,628.5,304.8z"/>
	<path class="st4" d="M278.6,312.3c-12.1,9.6-26.3,17-41.6,18.6s-31.8-3-42.1-14.4c-48.3,13-98.8,16-148.3,8.8
		c-8.1-1.2-16.5-2.8-23.3-7.3s-11.9-12.7-10.4-20.8c6.6,12.7,23.9,15.5,38.1,16.7c16.5,1.4,33.1,0.2,49.2-3.5
		c-7.6-1.6-14.5-5.5-19.7-11.2c44.4,10.7,91.1,6.8,133.1-11.1c-1.8,8.1,3.3,16.6,10.5,20.6s16,4.3,24.1,2.7
		c26.8-5.1,48.3-30.6,48.9-58C301.3,273.4,294.6,299.6,278.6,312.3z"/>
</g>
</svg>
